<svg xmlns="http://www.w3.org/2000/svg" xmlns:xlink="http://www.w3.org/1999/xlink" width="525.131" height="148.787" viewBox="0 0 525.131 148.787"><defs><linearGradient id="a" x1="-0.277" y1="0.5" x2="1.012" y2="0.5" gradientUnits="objectBoundingBox"><stop offset="0" stop-color="#fd7e32"/><stop offset="0.554" stop-color="#ff5400"/><stop offset="1" stop-color="#d83c02"/></linearGradient><linearGradient id="b" x1="-1.059" y1="0.5" x2="1" y2="0.5" gradientUnits="objectBoundingBox"><stop offset="0" stop-color="#ff5400"/><stop offset="0.123" stop-color="#f34c00"/><stop offset="0.351" stop-color="#e34301"/><stop offset="0.616" stop-color="#da3d01"/><stop offset="1" stop-color="#d83c02"/></linearGradient><linearGradient id="c" y1="0.5" x2="1.361" y2="0.5" gradientUnits="objectBoundingBox"><stop offset="0" stop-color="#fd7e32"/><stop offset="0.659" stop-color="#ff5400"/><stop offset="1" stop-color="#d83c02"/></linearGradient><linearGradient id="d" x1="-0.156" y1="0.5" x2="1.16" y2="0.5" gradientUnits="objectBoundingBox"><stop offset="0" stop-color="#fd7e32"/><stop offset="0.244" stop-color="#ff5400"/><stop offset="1" stop-color="#d83c02"/></linearGradient><linearGradient id="e" x1="-0.016" y1="0.5" x2="1.466" y2="0.5" gradientUnits="objectBoundingBox"><stop offset="0" stop-color="#fd7e32"/><stop offset="0.517" stop-color="#fd7c30"/><stop offset="0.703" stop-color="#fd7629"/><stop offset="0.836" stop-color="#fd6c1d"/><stop offset="0.942" stop-color="#fe5e0c"/><stop offset="1" stop-color="#ff5400"/></linearGradient><linearGradient id="f" y1="0.5" x2="1" y2="0.5" gradientUnits="objectBoundingBox"><stop offset="0" stop-color="#fd7e32"/><stop offset="0.5" stop-color="#ff5400"/><stop offset="1" stop-color="#d83c02"/></linearGradient><linearGradient id="h" x1="0" y1="0.5" x2="1" y2="0.5" xlink:href="#f"/></defs><g transform="translate(-225.809 -197)"><path d="M350.78,327.324a74.5,74.5,0,0,0,23.789-40.392,1.941,1.941,0,0,0-1.193-2.222L268.008,244.025a1.933,1.933,0,0,0-2.045,3.187l82.187,80.046A1.938,1.938,0,0,0,350.78,327.324Z" fill="url(#a)"/><path d="M306.121,200.3l65.171,65.171a1.935,1.935,0,0,0,3.294-1.554,74.587,74.587,0,0,0-66.912-66.911A1.935,1.935,0,0,0,306.121,200.3Z" fill="url(#b)"/><path d="M237.329,236.212a1.93,1.93,0,0,0-3.054.474,74.233,74.233,0,0,0-8.466,34.535v.822a1.864,1.864,0,0,0,.985,1.644l96.583,51.621a1.933,1.933,0,0,0,2.26-3.089Z" fill="url(#c)"/><path d="M286.716,197.908a74.444,74.444,0,0,0-41.406,23.041,1.93,1.93,0,0,0,.742,3.1l102.207,39.465a1.933,1.933,0,0,0,2.063-3.17l-61.893-61.893A1.932,1.932,0,0,0,286.716,197.908Z" fill="url(#d)"/><path d="M300.375,345.787a74.45,74.45,0,0,0,23.529-3.792,1.934,1.934,0,0,0,.312-3.543l-92.984-49.7a1.935,1.935,0,0,0-2.771,2.231A74.6,74.6,0,0,0,300.375,345.787Z" fill="url(#e)"/></g><g transform="translate(-6.441 -335.805)"><path d="M225.043,444.733V369.384h4.975v75.349A18.022,18.022,0,0,0,233.169,449a16.851,16.851,0,0,0,23.683-.083,15.96,15.96,0,0,0,5-11.829v-67.7h4.975V437.53a21.842,21.842,0,0,1-37.253,14.9,19.328,19.328,0,0,1-2.044-2.271,19.21,19.21,0,0,1-2.046,2.271,21.088,21.088,0,0,1-15.42,6.371,21.934,21.934,0,0,1-21.832-21.274V369.384h4.975v67.7a15.96,15.96,0,0,0,5,11.829,16.851,16.851,0,0,0,23.683.083A17.972,17.972,0,0,0,225.043,444.733Z" transform="translate(0)" stroke="#707070" stroke-miterlimit="10" stroke-width="0.558" fill="url(#f)"/><path d="M258.343,437.622a23.878,23.878,0,0,0,16.692,6.428,24.146,24.146,0,0,0,17.741-7.37q.939-.939,1.768-1.938l5.25,1.883a31.259,31.259,0,0,1-3.26,3.823,30.4,30.4,0,1,1-2.653-45.485q1.327,1.107,2.653,2.437.5.5.94,1l-3.759,3.766Zm31.724-38.838a25.055,25.055,0,0,0-32.72,2.354,25.206,25.206,0,0,0-2.376,32.826Z" transform="translate(29.985 10.212)" stroke="#707070" stroke-miterlimit="10" stroke-width="0.558" fill="url(#f)"/><path d="M294.32,369.384v88.645h-4.974V369.384Z" transform="translate(53.7)" stroke="#707070" stroke-miterlimit="10" stroke-width="0.558" fill="url(#h)"/><path d="M324.371,441.224,312.1,466.875h-4.863l14.647-30.8-21.169-44.377h5.638l18.018,39,18.018-39h5.582l-23.6,49.586Z" transform="translate(59.739 11.93)" stroke="#707070" stroke-miterlimit="10" stroke-width="0.558" fill="url(#f)"/><path d="M344.677,404.965v42.273H339.7V392.832h4.974v3.49a21.739,21.739,0,0,1,15.807-6.759q9.616,0,15.642,6.038a21.261,21.261,0,0,1,6.19,15.237v36.4h-4.975V411.282a15.963,15.963,0,0,0-5-11.83,16.855,16.855,0,0,0-23.683-.083A18.7,18.7,0,0,0,344.677,404.965Z" transform="translate(80.445 10.791)" stroke="#707070" stroke-miterlimit="10" stroke-width="0.558" fill="url(#f)"/><path d="M389.85,437.622a23.874,23.874,0,0,0,16.691,6.428,24.15,24.15,0,0,0,17.742-7.37q.939-.939,1.768-1.938l5.25,1.883a31.4,31.4,0,0,1-3.26,3.823,30.4,30.4,0,1,1-2.653-45.485q1.325,1.107,2.653,2.437.5.5.939,1l-3.759,3.766Zm31.724-38.838a25.055,25.055,0,0,0-32.72,2.354,25.206,25.206,0,0,0-2.376,32.826Z" transform="translate(99.827 10.212)" stroke="#707070" stroke-miterlimit="10" stroke-width="0.558" fill="url(#f)"/></g></svg>